<svg viewBox="0 0 300 200" xmlns="http://www.w3.org/2000/svg">
  <defs>
    <linearGradient id="legalGradient" x1="0%" y1="0%" x2="100%" y2="100%">
      <stop offset="0%" style="stop-color:#F59E0B;stop-opacity:1" />
      <stop offset="100%" style="stop-color:#FBBF24;stop-opacity:1" />
    </linearGradient>
    <linearGradient id="legalBackground" x1="0%" y1="0%" x2="100%" y2="100%">
      <stop offset="0%" style="stop-color:#FFFBEB;stop-opacity:1" />
      <stop offset="100%" style="stop-color:#FFFFFF;stop-opacity:1" />
    </linearGradient>
    <filter id="legalShadow" x="-20%" y="-20%" width="140%" height="140%">
      <feDropShadow dx="0" dy="2" stdDeviation="4" flood-color="#000000" flood-opacity="0.1"/>
    </filter>
  </defs>
  
  <!-- Background -->
  <rect width="300" height="200" fill="url(#legalBackground)" rx="12"/>
  
  <!-- Courthouse building -->
  <g transform="translate(150,140)">
    <!-- Base -->
    <rect x="-60" y="-20" width="120" height="40" fill="#F3F4F6" filter="url(#legalShadow)"/>
    
    <!-- Columns -->
    <rect x="-45" y="-50" width="8" height="30" fill="#E5E7EB"/>
    <rect x="-25" y="-50" width="8" height="30" fill="#E5E7EB"/>
    <rect x="-5" y="-50" width="8" height="30" fill="#E5E7EB"/>
    <rect x="15" y="-50" width="8" height="30" fill="#E5E7EB"/>
    <rect x="35" y="-50" width="8" height="30" fill="#E5E7EB"/>
    
    <!-- Roof -->
    <polygon points="-70,-50 0,-80 70,-50" fill="#374151"/>
    
    <!-- Steps -->
    <rect x="-55" y="20" width="110" height="5" fill="#D1D5DB"/>
    <rect x="-50" y="25" width="100" height="5" fill="#D1D5DB"/>
    
    <!-- Entrance -->
    <rect x="-15" y="-20" width="30" height="40" fill="#6B7280"/>
  </g>
  
  <!-- Scales of justice -->
  <g transform="translate(80,80)">
    <circle r="25" fill="#FFFFFF" filter="url(#legalShadow)" opacity="0.95"/>
    
    <!-- Scales -->
    <g transform="scale(1.2)">
      <!-- Balance beam -->
      <line x1="-15" y1="0" x2="15" y2="0" stroke="url(#legalGradient)" stroke-width="3"/>
      
      <!-- Center post -->
      <line x1="0" y1="-10" x2="0" y2="10" stroke="url(#legalGradient)" stroke-width="3"/>
      
      <!-- Left scale -->
      <g transform="translate(-12,0)">
        <line x1="-5" y1="0" x2="5" y2="0" stroke="url(#legalGradient)" stroke-width="2"/>
        <path d="M-5,0 Q-5,5 -2,7 Q2,5 5,0" fill="none" stroke="url(#legalGradient)" stroke-width="2"/>
      </g>
      
      <!-- Right scale -->
      <g transform="translate(12,0)">
        <line x1="-5" y1="0" x2="5" y2="0" stroke="url(#legalGradient)" stroke-width="2"/>
        <path d="M-5,0 Q-5,5 -2,7 Q2,5 5,0" fill="none" stroke="url(#legalGradient)" stroke-width="2"/>
      </g>
    </g>
  </g>
  
  <!-- Legal documents -->
  <g transform="translate(220,60)">
    <g filter="url(#legalShadow)">
      <!-- Document 1 -->
      <rect x="0" y="0" width="40" height="50" rx="2" fill="#FFFFFF"/>
      <line x1="5" y1="8" x2="35" y2="8" stroke="#D1D5DB" stroke-width="1"/>
      <line x1="5" y1="15" x2="30" y2="15" stroke="#D1D5DB" stroke-width="1"/>
      <line x1="5" y1="22" x2="35" y2="22" stroke="#D1D5DB" stroke-width="1"/>
      
      <!-- Document 2 -->
      <rect x="5" y="5" width="40" height="50" rx="2" fill="#FFFFFF"/>
      <line x1="10" y1="13" x2="40" y2="13" stroke="#D1D5DB" stroke-width="1"/>
      <line x1="10" y1="20" x2="35" y2="20" stroke="#D1D5DB" stroke-width="1"/>
      <line x1="10" y1="27" x2="40" y2="27" stroke="#D1D5DB" stroke-width="1"/>
    </g>
    
    <!-- Gavel -->
    <g transform="translate(55,30)">
      <rect x="-8" y="-3" width="16" height="6" rx="3" fill="#92400E"/>
      <rect x="-2" y="3" width="4" height="15" fill="#A3A3A3"/>
      <circle cx="0" cy="20" r="3" fill="#92400E"/>
    </g>
  </g>
  
  <!-- Floating legal icons -->
  <g transform="translate(40,40)">
    <circle r="10" fill="#FFFFFF" filter="url(#legalShadow)" opacity="0.9"/>
    <path d="M-4,-6 L4,-6 L4,6 L-4,6 Z" fill="none" stroke="url(#legalGradient)" stroke-width="2"/>
    <line x1="-2" y1="-3" x2="2" y2="-3" stroke="url(#legalGradient)" stroke-width="1"/>
    <line x1="-2" y1="0" x2="2" y2="0" stroke="url(#legalGradient)" stroke-width="1"/>
    <line x1="-2" y1="3" x2="2" y2="3" stroke="url(#legalGradient)" stroke-width="1"/>
  </g>
  
  <g transform="translate(250,120)">
    <circle r="10" fill="#FFFFFF" filter="url(#legalShadow)" opacity="0.9"/>
    <path d="M-5,-5 L5,-5 L3,5 L-3,5 Z" fill="url(#legalGradient)"/>
    <circle cx="0" cy="-2" r="1" fill="#FFFFFF"/>
  </g>
</svg>