<svg viewBox="0 0 300 200" xmlns="http://www.w3.org/2000/svg">
  <defs>
    <linearGradient id="medicalGradient" x1="0%" y1="0%" x2="100%" y2="100%">
      <stop offset="0%" style="stop-color:#EF4444;stop-opacity:1" />
      <stop offset="100%" style="stop-color:#F87171;stop-opacity:1" />
    </linearGradient>
    <linearGradient id="backgroundGradient" x1="0%" y1="0%" x2="100%" y2="100%">
      <stop offset="0%" style="stop-color:#FEF2F2;stop-opacity:1" />
      <stop offset="100%" style="stop-color:#FFFFFF;stop-opacity:1" />
    </linearGradient>
    <filter id="medicalShadow" x="-20%" y="-20%" width="140%" height="140%">
      <feDropShadow dx="0" dy="2" stdDeviation="4" flood-color="#000000" flood-opacity="0.1"/>
    </filter>
  </defs>
  
  <!-- Background -->
  <rect width="300" height="200" fill="url(#backgroundGradient)" rx="12"/>
  
  <!-- Ambulance -->
  <g transform="translate(70,100)">
    <!-- Vehicle body -->
    <rect x="0" y="-15" width="60" height="25" rx="3" fill="#FFFFFF" filter="url(#medicalShadow)"/>
    <rect x="5" y="-10" width="50" height="15" rx="2" fill="#F3F4F6"/>
    
    <!-- Medical cross on side -->
    <g transform="translate(30,-2)">
      <rect x="-6" y="-6" width="12" height="3" fill="url(#medicalGradient)"/>
      <rect x="-1.5" y="-10.5" width="3" height="12" fill="url(#medicalGradient)"/>
    </g>
    
    <!-- Wheels -->
    <circle cx="15" cy="15" r="6" fill="#374151"/>
    <circle cx="45" cy="15" r="6" fill="#374151"/>
    <circle cx="15" cy="15" r="3" fill="#6B7280"/>
    <circle cx="45" cy="15" r="3" fill="#6B7280"/>
    
    <!-- Front lights -->
    <circle cx="62" cy="-5" r="2" fill="#FEF08A"/>
  </g>
  
  <!-- Hospital building -->
  <g transform="translate(180,60)">
    <!-- Building -->
    <rect x="0" y="0" width="80" height="80" fill="#FFFFFF" filter="url(#medicalShadow)"/>
    <rect x="5" y="5" width="70" height="70" fill="#F9FAFB"/>
    
    <!-- Medical cross on building -->
    <g transform="translate(40,40)">
      <rect x="-12" y="-4" width="24" height="8" fill="url(#medicalGradient)"/>
      <rect x="-4" y="-16" width="8" height="32" fill="url(#medicalGradient)"/>
    </g>
    
    <!-- Windows -->
    <rect x="15" y="15" width="8" height="8" fill="#E5E7EB"/>
    <rect x="57" y="15" width="8" height="8" fill="#E5E7EB"/>
    <rect x="15" y="57" width="8" height="8" fill="#E5E7EB"/>
    <rect x="57" y="57" width="8" height="8" fill="#E5E7EB"/>
    
    <!-- Entrance -->
    <rect x="30" y="65" width="20" height="15" fill="#374151"/>
  </g>
  
  <!-- Heart monitor line -->
  <g transform="translate(20,50)">
    <path d="M0,0 L20,0 L25,-10 L30,15 L35,-20 L40,25 L45,-5 L50,0 L100,0" 
          stroke="url(#medicalGradient)" stroke-width="3" fill="none" opacity="0.7"/>
  </g>
  
  <!-- Medical icons floating -->
  <g transform="translate(50,30)">
    <circle r="8" fill="#FFFFFF" filter="url(#medicalShadow)" opacity="0.9"/>
    <path d="M-3,-3 L3,-3 L3,3 L-3,3 Z M-1,-5 L1,-5 L1,5 L-1,5 Z" fill="url(#medicalGradient)"/>
  </g>
  
  <g transform="translate(200,30)">
    <circle r="8" fill="#FFFFFF" filter="url(#medicalShadow)" opacity="0.9"/>
    <path d="M-4,0 Q-4,-4 0,-4 Q4,-4 4,0 Q4,4 0,4 Q-4,4 -4,0 M-2,0 Q-2,-2 0,-2 Q2,-2 2,0 Q2,2 0,2 Q-2,2 -2,0" 
          fill="url(#medicalGradient)"/>
  </g>
</svg>